<svg xmlns="http://www.w3.org/2000/svg" viewBox="0 0 1062.85 645.4"><defs><style>.cls-1{fill-rule:evenodd;}</style></defs><title>sd</title><g id="Layer_2" data-name="Layer 2"><g id="Layer_1-2" data-name="Layer 1"><path class="cls-1" d="M272.37,400l172-155c39.63,0,73.71,0,74.26,0,260.81,0,260.81,400.29-5.14,400.29H0L172.34,490.15H489.13c72.68,0,72.68-90.45-.34-90.45C393.46,399.7,288.74,400,272.37,400Z"/><path class="cls-1" d="M754.85,645.4H618.79c50,0,121-108.7,121-156.7,181.5,0,188-333.46-23.48-333.46H543.73C588.16,116.61,693.39,21.84,716.31,0,1174.79,0,1168.79,645.4,754.85,645.4Z"/><path class="cls-1" d="M300.78,154.91c36.85,0,199,.33,199,.33L672.09,0H284.86C105.79,0-24.71,289.2,234,393.7,286.26,347,399.25,245.08,399.25,245.08H301C245.54,245.09,245.54,154.91,300.78,154.91Z"/></g></g></svg>