<?xml version="1.0" encoding="utf-8"?>
<!-- Generator: Adobe Illustrator 22.1.0, SVG Export Plug-In . SVG Version: 6.00 Build 0)  -->
<svg version="1.1" id="Слой_1" xmlns="http://www.w3.org/2000/svg" xmlns:xlink="http://www.w3.org/1999/xlink" x="0px" y="0px"
	 viewBox="0 0 1062.8 645.4" style="enable-background:new 0 0 1062.8 645.4;" xml:space="preserve">
<style type="text/css">
	.st0{fill:#FFFFFF;}
</style>
<title>sd</title>
<g id="Layer_2">
	<g id="Layer_1-2">
		<path class="st0" d="M272.4,400l172-155c39.6,0,73.7,0,74.3,0c260.8,0,260.8,400.3-5.1,400.3H0l172.3-155.1h316.8
			c72.7,0,72.7-90.4-0.3-90.4C393.5,399.7,288.7,400,272.4,400z"/>
		<path class="st0" d="M754.8,645.4H618.8c50,0,121-108.7,121-156.7c181.5,0,188-333.5-23.5-333.5H543.7
			C588.2,116.6,693.4,21.8,716.3,0C1174.8,0,1168.8,645.4,754.8,645.4z"/>
		<path class="st0" d="M300.8,154.9c36.9,0,199,0.3,199,0.3L672.1,0H284.9C105.8,0-24.7,289.2,234,393.7
			c52.3-46.7,165.3-148.6,165.3-148.6H301C245.5,245.1,245.5,154.9,300.8,154.9z"/>
	</g>
</g>
</svg>
