<?xml version="1.0" encoding="utf-8"?>
<!-- Generator: Adobe Illustrator 21.0.0, SVG Export Plug-In . SVG Version: 6.00 Build 0)  -->
<svg version="1.1" id="Слой_1" xmlns="http://www.w3.org/2000/svg" xmlns:xlink="http://www.w3.org/1999/xlink" x="0px" y="0px"
	 viewBox="0 0 14872.9 1896.3" style="enable-background:new 0 0 14872.9 1896.3;" xml:space="preserve">
<style type="text/css">
	.st0{fill:#FFFFFF;}
</style>
<title>Asset 1</title>
<g id="Layer_2">
	<g id="DIGITAL">
		<g id="DIGITAL-2">
			<path class="st0" d="M460.7,1538.9H119v348.6h341.7c243,0,358.8-82,358.8-174C819.5,1618.3,707.9,1538.9,460.7,1538.9z
				 M460.7,1856H159.8v-284.9h300.9c215.1,0,315.2,61.8,315.2,142.5C775.9,1793.6,673.8,1856,460.7,1856L460.7,1856z M2725,1887.5
				h40.9v-348.6H2725V1887.5z M4971.6,1730.5h317.2v85.7c-72.9,32.8-151.8,49.8-248.5,49.8c-177,0-324.7-69.3-324.7-154.4
				c0-86.4,138.9-155.7,315.9-155.7c104.8,0,197.4,22.1,258.7,61.2l17.7-27.1c-70.1-41-168.2-63.7-276.4-63.7
				c-199.5,0-360.8,83.2-360.8,185.3s170.2,184.7,369.7,184.7c116.4,0,211.7-23.3,285.3-64.9v-131.1h-354L4971.6,1730.5z
				 M7259,1887.5h40.9v-348.6H7259V1887.5z M9164.5,1571.1h306.4v316.4h41.5v-316.4h306.4v-32.2h-654.3L9164.5,1571.1z
				 M11918.2,1533.9l-315.2,353.6h51.7l91.9-107.8h423.5l104.8,107.8h53.8l-347.9-353.6L11918.2,1533.9z M11772.5,1750.7
				l168.7-190.4h16.3l183.3,190.4H11772.5z M14221.2,1856v-317.1h-40.8v348.6h614.8v-31.6L14221.2,1856z"/>
		</g>
	</g>
	<g id="SILENCE">
		<g id="SILENCE-2">
			<path class="st0" d="M1039,551.7c-659.5,0-885.7-99.4-885.7-217.7c0-143.8,376.3-236.8,801.2-236.8
				c332.3,0,690.5,57.7,927.8,196.4c11.8,7.1,27.2,3.3,34.3-8.5l28.7-47.4c7.3-12.1,3.5-28-8.8-35C1690.4,63.7,1315.6,0,960.8,0
				C461.9,0,5.3,124.7,5.3,342.5c0,164.9,274.8,310.8,1033.8,310.8c649,0,856.2,97.2,856.2,217.7c0,154.3-441.8,274.8-915.3,274.8
				c-337.8,0-689.4-61.4-909-217c-11.2-8.2-27-5.7-35.1,5.5c-0.2,0.3-0.4,0.5-0.5,0.8L4.3,981.2c-7.7,11.5-4.9,27.3,6.6,34.9
				C248.6,1175.2,614,1243,973.4,1243c545.4,0,1063.3-154.3,1063.3-380.5C2036.8,691.3,1789.4,551.7,1039,551.7z M2603.5,44.4h-76.4
				c-13.9,0-25.2,11.3-25.2,25.2c0,0,0,0,0,0v1118.6c0,13.9,11.3,25.2,25.2,25.2h76.4c13.9,0,25.2-11.3,25.2-25.2V69.6
				C2628.7,55.7,2617.4,44.4,2603.5,44.4z M5057.8,1107.7H3326.1c-13.9,0-25.2-11.3-25.2-25.2V69.6c0-13.9-11.3-25.2-25.2-25.2
				h-76.4c-13.9,0-25.2,11.3-25.2,25.2v1118.6c0,13.9,11.3,25.2,25.2,25.2h1858.5c13.9,0,25.2-11.3,25.2-25.2v-55.3
				C5083,1119,5071.7,1107.7,5057.8,1107.7C5057.8,1107.7,5057.8,1107.7,5057.8,1107.7z M7383.2,44.4H5490.9
				c-13.9,0-25.2,11.3-25.2,25.2v1118.6c0,13.9,11.3,25.2,25.2,25.2h1892.3c13.9,0,25.2-11.3,25.2-25.2v-51
				c0-13.9-11.3-25.2-25.2-25.2H5617.7c-13.9,0-25.2-11.3-25.2-25.2V661.5c0-13.9,11.3-25.2,25.2-25.2h1160.9
				c13.9,0,25.2-11.3,25.2-25.2v-48.9c0-13.9-11.3-25.2-25.2-25.2l0,0H5617.7c-13.9,0-25.2-11.3-25.2-25.2V173.2
				c0-13.9,11.3-25.2,25.2-25.2h1765.5c13.9,0,25.2-11.3,25.2-25.2c0,0,0,0,0,0V69.6C7408.4,55.7,7397.1,44.4,7383.2,44.4
				L7383.2,44.4z M9983.4,44.4H9907c-13.9,0-25.2,11.3-25.2,25.2v957.5c0,13.9-11.3,25.2-25.2,25.2c-4.2,0-8.4-1.1-12.1-3.1
				L8016.6,47.5c-3.7-2-7.9-3.1-12.1-3.1h-95.2c-13.9,0-25.2,11.3-25.2,25.2c0,0,0,0,0,0v1118.6c0,13.9,11.3,25.2,25.2,25.2h76.4
				c13.9,0,25.2-11.3,25.2-25.2V220.4c0-13.9,11.3-25.2,25.2-25.2c4.3,0,8.5,1.1,12.2,3.2l1827.7,1012c3.7,2.1,7.9,3.2,12.2,3.2
				h95.1c13.9,0,25.2-11.3,25.2-25.2V69.6C10008.6,55.7,9997.3,44.4,9983.4,44.4L9983.4,44.4z M12431.1,935.2
				c-7.8-11.6-23.5-14.6-35.1-6.8c-0.3,0.2-0.5,0.4-0.8,0.5c-183.6,130.5-475.9,212.6-805.3,212.6c-549.6,0-980.9-232.5-980.9-517.9
				c0-289.6,431.2-522.2,980.9-522.2c312.5,0,589.9,74,770.6,190.3c11.6,7.7,27.2,4.5,34.9-7.1c0.3-0.4,0.5-0.8,0.7-1.2l27-46.5
				c7-11.8,3.2-27-8.5-34.3c-204.5-123.5-499.8-200.6-824.7-200.6c-619.4,0-1120.4,279-1120.4,621.5s501,619.4,1120.4,619.4
				c349.7,0,661.7-89,865.4-226.8c11.4-7.7,14.2-23.4,6.5-34.9L12431.1,935.2z M13082.2,148h1765.5c13.9,0,25.2-11.3,25.2-25.2
				c0,0,0,0,0,0V69.6c0-13.9-11.3-25.2-25.2-25.2c0,0,0,0,0,0h-1892.3c-13.9,0-25.2,11.3-25.2,25.2v1118.6
				c0,13.9,11.3,25.2,25.2,25.2h1892.3c13.9,0,25.2-11.3,25.2-25.2v-51c0-13.9-11.3-25.2-25.2-25.2h-1765.5
				c-13.9,0-25.2-11.3-25.2-25.2V661.5c0-13.9,11.3-25.2,25.2-25.2h1160.9c13.9,0,25.2-11.3,25.2-25.2v-48.9
				c0-13.9-11.3-25.2-25.2-25.2h-1160.9c-13.9,0-25.2-11.3-25.2-25.2c0,0,0,0,0,0V173.2C13057,159.3,13068.3,148,13082.2,148z"/>
		</g>
	</g>
</g>
</svg>
