<svg xmlns="http://www.w3.org/2000/svg" viewBox="0 0 14872.89 1896.32"><defs><style>.cls-1{isolation:isolate;}.cls-2{fill-rule:evenodd;}</style></defs><title>Asset 1</title><g id="Layer_2" data-name="Layer 2"><g id="DIGITAL" class="cls-1"><g id="DIGITAL-2" data-name="DIGITAL"><path class="cls-2" d="M460.73,1538.9H119v348.6H460.73c243,0,358.78-82,358.78-174C819.51,1618.33,707.86,1538.9,460.73,1538.9Zm0,317.08H159.81V1571.05H460.73c215.13,0,315.21,61.78,315.21,142.46C775.94,1793.57,673.82,1856,460.73,1856ZM2725,1887.5h40.85V1538.9H2725Zm2246.57-157H5288.8v85.74c-72.85,32.78-151.82,49.8-248.49,49.8-177,0-324.74-69.35-324.74-154.45,0-86.36,138.88-155.7,315.89-155.7,104.84,0,197.43,22.06,258.7,61.15l17.7-27.11c-70.12-41-168.16-63.67-276.4-63.67-199.48,0-360.82,83.21-360.82,185.33s170.2,184.7,369.67,184.7c116.41,0,211.73-23.32,285.25-64.92V1700.28h-354Zm2287.39,157h40.85V1538.9h-40.85Zm1905.49-316.45h306.36V1887.5h41.53V1571.05h306.36V1538.9H9164.43Zm2753.75-37.19L11603,1887.5h51.74l91.91-107.8h423.46l104.84,107.8h53.78l-347.89-353.64Zm-145.69,216.85,168.69-190.38h16.34l183.28,190.38ZM14221.24,1856V1538.9h-40.84v348.6h614.76v-31.56Z"/></g></g><g id="SILENCE" class="cls-1"><g id="SILENCE-2" data-name="SILENCE"><path class="cls-2" d="M1039,551.74c-659.55,0-885.74-99.35-885.74-217.73,0-143.75,376.28-236.77,801.19-236.77,332.31,0,690.51,57.73,927.78,196.36a25.1,25.1,0,0,0,34.35-8.52l28.67-47.42c7.31-12.09,3.46-28-8.84-35C1690.42,63.7,1315.64,0,960.76,0,461.86,0,5.25,124.72,5.25,342.46,5.25,507.35,280.06,653.21,1039,653.21c649,0,856.16,97.24,856.16,217.74,0,154.32-441.82,274.81-915.35,274.81-337.76,0-689.4-61.45-909-217a25.15,25.15,0,0,0-35.68,6.3L4.3,981.24c-7.67,11.5-4.86,27.25,6.64,34.94C248.56,1175.15,614,1243,973.44,1243c545.4,0,1063.32-154.31,1063.32-380.51C2036.76,691.26,1789.43,551.74,1039,551.74ZM2603.5,44.39h-76.41a25.21,25.21,0,0,0-25.21,25.22V1188.2a25.21,25.21,0,0,0,25.21,25.21h76.41a25.21,25.21,0,0,0,25.21-25.21V69.61A25.22,25.22,0,0,0,2603.5,44.39ZM5057.79,1107.71H3326.15a25.21,25.21,0,0,1-25.21-25.21V69.61a25.22,25.22,0,0,0-25.22-25.22h-76.4a25.22,25.22,0,0,0-25.22,25.22V1188.2a25.22,25.22,0,0,0,25.22,25.21H5057.79A25.21,25.21,0,0,0,5083,1188.2v-55.27A25.21,25.21,0,0,0,5057.79,1107.71ZM7383.18,44.39H5490.88a25.22,25.22,0,0,0-25.21,25.22V1188.2a25.21,25.21,0,0,0,25.21,25.21h1892.3a25.22,25.22,0,0,0,25.22-25.21v-51a25.22,25.22,0,0,0-25.22-25.21H5617.72a25.21,25.21,0,0,1-25.21-25.21V661.51a25.21,25.21,0,0,1,25.21-25.21H6778.59a25.22,25.22,0,0,0,25.22-25.21V562.16a25.22,25.22,0,0,0-25.22-25.22H5617.72a25.21,25.21,0,0,1-25.21-25.21V173.19A25.21,25.21,0,0,1,5617.72,148H7383.18a25.22,25.22,0,0,0,25.22-25.22V69.61A25.22,25.22,0,0,0,7383.18,44.39Zm2600.21,0H9907a25.22,25.22,0,0,0-25.22,25.22v957.48a25.21,25.21,0,0,1-37.33,22.11L8016.57,47.5a25.15,25.15,0,0,0-12.11-3.11h-95.17a25.21,25.21,0,0,0-25.21,25.22V1188.2a25.21,25.21,0,0,0,25.21,25.21h76.41a25.21,25.21,0,0,0,25.21-25.21V220.35a25.22,25.22,0,0,1,37.43-22.06l1827.72,1012a25.22,25.22,0,0,0,12.22,3.16h95.11a25.21,25.21,0,0,0,25.21-25.21V69.61A25.22,25.22,0,0,0,9983.39,44.39ZM12431.1,935.2a25.29,25.29,0,0,0-35.87-6.3c-183.59,130.46-475.88,212.64-805.34,212.64-549.63,0-980.87-232.54-980.87-517.92,0-289.61,431.24-522.15,980.87-522.15,312.48,0,589.9,74,770.58,190.25a25.17,25.17,0,0,0,35.59-8.3l27-46.49a25.21,25.21,0,0,0-8.47-34.26C12210.07,79.15,11914.8,2.11,11589.89,2.11c-619.39,0-1120.4,279.05-1120.4,621.51s501,619.38,1120.4,619.38c349.65,0,661.72-89,865.43-226.82,11.43-7.73,14.17-23.39,6.52-34.86ZM13082.22,148h1765.46a25.21,25.21,0,0,0,25.21-25.22V69.61a25.21,25.21,0,0,0-25.21-25.22h-1892.3a25.22,25.22,0,0,0-25.21,25.22V1188.2a25.21,25.21,0,0,0,25.21,25.21h1892.3a25.21,25.21,0,0,0,25.21-25.21v-51a25.21,25.21,0,0,0-25.21-25.21H13082.22a25.21,25.21,0,0,1-25.21-25.21V661.51a25.21,25.21,0,0,1,25.21-25.21h1160.87a25.21,25.21,0,0,0,25.21-25.21V562.16a25.22,25.22,0,0,0-25.21-25.22H13082.22a25.2,25.2,0,0,1-25.21-25.21V173.19A25.2,25.2,0,0,1,13082.22,148Z"/></g></g></g></svg>